
<svg width="68" height="109" viewBox="0 0 68 109" fill="none" xmlns="http://www.w3.org/2000/svg">
<path d="M33.7031 0.390625C36.7969 0.390625 39.7656 0.796875 42.6094 1.60938C45.4844 2.42187 48.1719 3.5625 50.6719 5.03125C53.1719 6.46875 55.4375 8.21875 57.4688 10.2812C59.5312 12.3438 61.2969 14.625 62.7656 17.125C64.2344 19.5938 65.3594 22.2656 66.1406 25.1406C66.9531 28.0156 67.3594 31 67.3594 34.0938C67.3594 36.9688 67.0469 39.6562 66.4219 42.1562C65.8281 44.625 64.9531 46.9688 63.7969 49.1875C62.6719 51.4062 61.2812 53.5156 59.625 55.5156C58 57.5156 56.1562 59.4531 54.0938 61.3281C53.0938 62.2344 52.1719 63.1719 51.3281 64.1406C50.4844 65.0781 49.75 66.0938 49.125 67.1875C48.5312 68.25 48.0469 69.3906 47.6719 70.6094C47.3281 71.7969 47.1562 73.0938 47.1562 74.5V86.2656C47.7188 87.2969 48.1406 88.3906 48.4219 89.5469C48.7031 90.7031 48.8438 91.875 48.8438 93.0625C48.8438 95.1562 48.4375 97.1094 47.625 98.9219C46.8438 100.766 45.7656 102.375 44.3906 103.75C43.0156 105.125 41.4062 106.203 39.5625 106.984C37.75 107.797 35.7969 108.203 33.7031 108.203C31.6094 108.203 29.6406 107.797 27.7969 106.984C25.9531 106.203 24.3438 105.125 22.9688 103.75C21.5938 102.375 20.5 100.766 19.6875 98.9219C18.9062 97.1094 18.5156 95.1562 18.5156 93.0625C18.5156 91.875 18.6562 90.7031 18.9375 89.5469C19.25 88.4219 19.6719 87.3281 20.2031 86.2656V74.5C20.2031 69.1562 21.1719 64.0312 23.1094 59.125C25.0469 54.2188 27.8125 49.7812 31.4062 45.8125C32.2812 44.875 33.1719 43.9844 34.0781 43.1406C35.0156 42.2969 35.9531 41.4375 36.8906 40.5625C37.8594 39.6562 38.6875 38.7031 39.375 37.7031C40.0625 36.7031 40.4062 35.5 40.4062 34.0938C40.4062 33.1562 40.2344 32.2812 39.8906 31.4688C39.5469 30.6563 39.0625 29.9531 38.4375 29.3594C37.8438 28.7344 37.1406 28.25 36.3281 27.9062C35.5156 27.5312 34.6406 27.3438 33.7031 27.3438C32.7656 27.3438 31.8906 27.5312 31.0781 27.9062C30.2656 28.25 29.5469 28.7344 28.9219 29.3594C28.3281 29.9531 27.8438 30.6563 27.4688 31.4688C27.125 32.2812 26.9531 33.1562 26.9531 34.0938V40.8438H0V34.0938C0 31 0.40625 28.0156 1.21875 25.1406C2.03125 22.2656 3.15625 19.5938 4.59375 17.125C6.0625 14.625 7.82812 12.3438 9.89062 10.2812C11.9531 8.21875 14.2188 6.46875 16.6875 5.03125C19.1875 3.5625 21.875 2.42187 24.75 1.60938C27.625 0.796875 30.6094 0.390625 33.7031 0.390625Z" fill="#E13433"/>

<path d="M33.7031 0.390625C36.7969 0.390625 39.7656 0.796875 42.6094 1.60938C45.4844 2.42187 48.1719 3.5625 50.6719 5.03125C53.1719 6.46875 55.4375 8.21875 57.4688 10.2812C59.5312 12.3438 61.2969 14.625 62.7656 17.125C64.2344 19.5938 65.3594 22.2656 66.1406 25.1406C66.9531 28.0156 67.3594 31 67.3594 34.0938C67.3594 36.9688 67.0469 39.6562 66.4219 42.1562C65.8281 44.625 64.9531 46.9688 63.7969 49.1875C62.6719 51.4062 61.2812 53.5156 59.625 55.5156C58 57.5156 56.1562 59.4531 54.0938 61.3281C53.0938 62.2344 52.1719 63.1719 51.3281 64.1406C50.4844 65.0781 49.75 66.0938 49.125 67.1875C48.5312 68.25 48.0469 69.3906 47.6719 70.6094C47.3281 71.7969 47.1562 73.0938 47.1562 74.5V86.2656C47.7188 87.2969 48.1406 88.3906 48.4219 89.5469C48.7031 90.7031 48.8438 91.875 48.8438 93.0625C48.8438 95.1562 48.4375 97.1094 47.625 98.9219C46.8438 100.766 45.7656 102.375 44.3906 103.75C43.0156 105.125 41.4062 106.203 39.5625 106.984C37.75 107.797 35.7969 108.203 33.7031 108.203C31.6094 108.203 29.6406 107.797 27.7969 106.984C25.9531 106.203 24.3438 105.125 22.9688 103.75C21.5938 102.375 20.5 100.766 19.6875 98.9219C18.9062 97.1094 18.5156 95.1562 18.5156 93.0625C18.5156 91.875 18.6562 90.7031 18.9375 89.5469C19.25 88.4219 19.6719 87.3281 20.2031 86.2656V74.5C20.2031 69.1562 21.1719 64.0312 23.1094 59.125C25.0469 54.2188 27.8125 49.7812 31.4062 45.8125C32.2812 44.875 33.1719 43.9844 34.0781 43.1406C35.0156 42.2969 35.9531 41.4375 36.8906 40.5625C37.8594 39.6562 38.6875 38.7031 39.375 37.7031C40.0625 36.7031 40.4062 35.5 40.4062 34.0938C40.4062 33.1562 40.2344 32.2812 39.8906 31.4688C39.5469 30.6563 39.0625 29.9531 38.4375 29.3594C37.8438 28.7344 37.1406 28.25 36.3281 27.9062C35.5156 27.5312 34.6406 27.3438 33.7031 27.3438C32.7656 27.3438 31.8906 27.5312 31.0781 27.9062C30.2656 28.25 29.5469 28.7344 28.9219 29.3594C28.3281 29.9531 27.8438 30.6563 27.4688 31.4688C27.125 32.2812 26.9531 33.1562 26.9531 34.0938V40.8438H0V34.0938C0 31 0.40625 28.0156 1.21875 25.1406C2.03125 22.2656 3.15625 19.5938 4.59375 17.125C6.0625 14.625 7.82812 12.3438 9.89062 10.2812C11.9531 8.21875 14.2188 6.46875 16.6875 5.03125C19.1875 3.5625 21.875 2.42187 24.75 1.60938C27.625 0.796875 30.6094 0.390625 33.7031 0.390625ZM40.4062 74.5C40.4062 72.5312 40.625 70.7031 41.0625 69.0156C41.5312 67.3281 42.1719 65.75 42.9844 64.2812C43.8281 62.7812 44.8281 61.375 45.9844 60.0625C47.1406 58.7188 48.4062 57.4062 49.7812 56.125C51.4375 54.5938 52.9375 53.0312 54.2812 51.4375C55.625 49.8125 56.7656 48.1094 57.7031 46.3281C58.6406 44.5156 59.3594 42.6094 59.8594 40.6094C60.3906 38.5781 60.6562 36.4062 60.6562 34.0938C60.6562 30.4062 59.9375 26.9219 58.5 23.6406C57.0938 20.3594 55.1719 17.5 52.7344 15.0625C50.2969 12.625 47.4375 10.7031 44.1562 9.29688C40.875 7.85937 37.3906 7.14062 33.7031 7.14062C29.9844 7.14062 26.4844 7.85937 23.2031 9.29688C19.9531 10.7031 17.1094 12.625 14.6719 15.0625C12.2344 17.5 10.2969 20.3594 8.85938 23.6406C7.45312 26.9219 6.75 30.4062 6.75 34.0938H20.2031C20.2031 32.2188 20.5469 30.4688 21.2344 28.8438C21.9531 27.1875 22.9219 25.75 24.1406 24.5312C25.3594 23.3125 26.7812 22.3594 28.4062 21.6719C30.0625 20.9531 31.8281 20.5938 33.7031 20.5938C35.5469 20.5938 37.2812 20.9531 38.9062 21.6719C40.5312 22.3906 41.9531 23.3594 43.1719 24.5781C44.3906 25.7969 45.3594 27.2344 46.0781 28.8906C46.7969 30.5156 47.1562 32.25 47.1562 34.0938C47.1562 36.5938 46.5938 38.75 45.4688 40.5625C44.375 42.375 42.9531 44.0938 41.2031 45.7188C39.0156 47.75 37.0469 49.8125 35.2969 51.9062C33.5469 54 32.0469 56.2188 30.7969 58.5625C29.5781 60.875 28.625 63.3438 27.9375 65.9688C27.2812 68.5938 26.9531 71.4375 26.9531 74.5H40.4062ZM33.7031 101.453C34.8594 101.453 35.9375 101.234 36.9375 100.797C37.9688 100.359 38.8594 99.75 39.6094 98.9688C40.3906 98.2188 41 97.3281 41.4375 96.2969C41.875 95.2969 42.0938 94.2188 42.0938 93.0625C42.0938 91.9062 41.875 90.8125 41.4375 89.7812C41 88.75 40.3906 87.8594 39.6094 87.1094C38.8594 86.3281 37.9688 85.7188 36.9375 85.2812C35.9375 84.8438 34.8594 84.625 33.7031 84.625C32.5156 84.625 31.4062 84.8438 30.375 85.2812C29.375 85.7188 28.4844 86.3281 27.7031 87.1094C26.9531 87.8594 26.3594 88.75 25.9219 89.7812C25.4844 90.8125 25.2656 91.9062 25.2656 93.0625C25.2656 94.2188 25.4844 95.2969 25.9219 96.2969C26.3594 97.3281 26.9531 98.2188 27.7031 98.9688C28.4844 99.75 29.3906 100.359 30.4219 100.797C31.4531 101.234 32.5469 101.453 33.7031 101.453Z" fill="black"/>
</svg>
